<?xml version="1.0" encoding="UTF-8"?>
<!DOCTYPE svg PUBLIC "-//W3C//DTD SVG 1.1//EN" "http://www.w3.org/Graphics/SVG/1.1/DTD/svg11.dtd">
<svg xmlns="http://www.w3.org/2000/svg" version="1.1" width="1291px" height="1291px" style="shape-rendering:geometricPrecision; text-rendering:geometricPrecision; image-rendering:optimizeQuality; fill-rule:evenodd; clip-rule:evenodd" xmlns:xlink="http://www.w3.org/1999/xlink">
<g><path style="opacity:0.967" fill="#b1b59a" d="M 615.5,-0.5 C 634.833,-0.5 654.167,-0.5 673.5,-0.5C 868.563,11.9426 1027.73,93.2759 1151,243.5C 1238.2,355.64 1284.7,482.973 1290.5,625.5C 1290.5,638.5 1290.5,651.5 1290.5,664.5C 1279.36,872.884 1191.36,1040.05 1026.5,1166C 918.558,1243.82 797.891,1285.32 664.5,1290.5C 651.5,1290.5 638.5,1290.5 625.5,1290.5C 435.573,1281.11 278.073,1205.44 153,1063.5C 58.821,950.861 7.65434,820.861 -0.5,673.5C -0.5,654.167 -0.5,634.833 -0.5,615.5C 10.5455,435.928 81.8788,285.428 213.5,164C 328.219,63.174 462.219,8.3407 615.5,-0.5 Z"/></g>
<g><path style="opacity:1" fill="#a2a58c" d="M 614.5,14.5 C 808.768,9.43303 972.934,76.433 1107,215.5C 1222.54,343.393 1278.54,494.06 1275,667.5C 1263.88,863.265 1182.38,1022.1 1030.5,1144C 876.203,1258.74 704.203,1298.07 514.5,1262C 339.035,1221.58 203.201,1125.75 107,974.5C 22.8185,832.419 -3.84821,680.086 27,517.5C 62.4789,357.272 145.979,228.772 277.5,132C 378.556,60.9239 490.889,21.7573 614.5,14.5 Z"/></g>
<g><path style="opacity:1" fill="#b2b59a" d="M 620.5,18.5 C 810.025,15.5593 970.525,81.5593 1102,216.5C 1235.68,365.089 1289.68,539.089 1264,738.5C 1235,910.44 1151.17,1048.27 1012.5,1152C 856.391,1260.82 685.058,1294.82 498.5,1254C 325.595,1209.03 193.428,1110.19 102,957.5C 17.8597,805.712 -2.47368,645.712 41,477.5C 89.5754,312.635 187.742,186.801 335.5,100C 424.137,50.3965 519.137,23.2299 620.5,18.5 Z"/></g>
<g><path style="opacity:1" fill="#f5efe8" d="M 652.5,187.5 C 655.187,187.336 657.854,187.503 660.5,188C 671.256,195.42 680.756,204.254 689,214.5C 734.183,273.908 750.183,340.575 737,414.5C 732.47,435.428 724.804,455.095 714,473.5C 708.65,478.751 702.15,481.084 694.5,480.5C 691.063,480.448 688.063,479.281 685.5,477C 649.462,444.542 626.295,404.376 616,356.5C 609.499,323.279 608.832,289.946 614,256.5C 618.023,236.097 625.023,216.764 635,198.5C 638.926,191.629 644.759,187.962 652.5,187.5 Z"/></g>
<g><path style="opacity:1" fill="#e8dcd1" d="M 648.5,198.5 C 654.105,197.908 659.439,198.741 664.5,201C 692.894,226.953 687.894,241.12 649.5,243.5C 638.48,245.014 632.48,240.347 631.5,229.5C 632.964,220.563 636.13,212.23 641,204.5C 643.114,201.879 645.614,199.879 648.5,198.5 Z"/></g>
<g><path style="opacity:1" fill="#db9824" d="M 509.5,222.5 C 550.678,223.165 578.511,242.832 593,281.5C 598.823,299.732 600.823,318.399 599,337.5C 597.414,353.762 594.414,369.762 590,385.5C 584.351,395.408 575.851,399.574 564.5,398C 535.697,393.925 509.697,383.258 486.5,366C 455.043,338.988 444.543,305.488 455,265.5C 465.454,241.212 483.62,226.878 509.5,222.5 Z"/></g>
<g><path style="opacity:1" fill="#fdc573" d="M 548.5,245.5 C 551.5,249.187 554.166,253.187 556.5,257.5C 554.95,261.661 553.116,265.661 551,269.5C 548.5,265.833 546,262.167 543.5,258.5C 545.018,254.085 546.684,249.752 548.5,245.5 Z"/></g>
<g><path style="opacity:1" fill="#fdc472" d="M 560.5,257.5 C 563.53,260.221 565.864,263.555 567.5,267.5C 566.361,270.917 565.028,274.25 563.5,277.5C 560.493,274.828 558.493,271.495 557.5,267.5C 558.519,264.14 559.519,260.807 560.5,257.5 Z"/></g>
<g><path style="opacity:1" fill="#db9824" d="M 830.5,293.5 C 853.99,291.645 868.824,301.979 875,324.5C 877.087,337.812 874.921,350.312 868.5,362C 840.229,373.968 814.896,390.301 792.5,411C 784.659,414.332 778.825,412.165 775,404.5C 766.909,368.017 775.409,336.183 800.5,309C 809.332,301.418 819.332,296.252 830.5,293.5 Z"/></g>
<g><path style="opacity:1" fill="#cb7d12" d="M 447.5,319.5 C 448.5,319.5 449.5,319.5 450.5,319.5C 460.768,349.273 480.101,371.106 508.5,385C 520.334,390.75 532.667,395.083 545.5,398C 549.65,406.922 549.483,415.755 545,424.5C 543.269,426.617 541.102,428.117 538.5,429C 523.4,427.608 508.234,426.775 493,426.5C 477.556,426.516 462.223,427.849 447,430.5C 430.815,423.984 419.148,412.651 412,396.5C 401.148,360.211 412.982,334.544 447.5,319.5 Z"/></g>
<g><path style="opacity:1" fill="#f5efe8" d="M 939.5,348.5 C 959.383,347.462 979.049,348.962 998.5,353C 1009.86,360.565 1013.03,370.731 1008,383.5C 982.999,433.501 945.165,470.335 894.5,494C 851.425,513.963 806.425,520.296 759.5,513C 751.289,510.453 746.122,504.953 744,496.5C 743.333,493.167 743.333,489.833 744,486.5C 762.845,443.99 792.011,410.49 831.5,386C 864.749,365.196 900.749,352.696 939.5,348.5 Z"/></g>
<g><path style="opacity:1" fill="#e8dcd1" d="M 962.5,357.5 C 971.213,357.248 979.88,357.748 988.5,359C 998.48,362.79 1002.31,369.956 1000,380.5C 997.363,387.777 993.696,394.444 989,400.5C 982.266,407.823 975.1,408.323 967.5,402C 958.32,391.489 953.82,379.322 954,365.5C 956.074,361.923 958.907,359.256 962.5,357.5 Z"/></g>
<g><path style="opacity:1" fill="#efe6dc" d="M 692.5,408.5 C 713.091,406.921 721.591,416.255 718,436.5C 715.904,446.472 712.071,455.639 706.5,464C 700.67,468.086 694.67,468.42 688.5,465C 676.729,455.106 669.062,442.773 665.5,428C 666.974,418.856 672.307,413.189 681.5,411C 685.392,410.581 689.058,409.748 692.5,408.5 Z"/></g>
<g><path style="opacity:1" fill="#f5efe8" d="M 474.5,430.5 C 533.28,427.441 586.947,442.274 635.5,475C 644.297,482.128 652.797,489.628 661,497.5C 668.281,505.126 669.615,513.792 665,523.5C 661.747,528.049 657.58,531.549 652.5,534C 606.792,557.675 558.458,565.342 507.5,557C 456.443,549.223 412.943,527.056 377,490.5C 373.03,483.244 372.364,475.578 375,467.5C 377.167,464 380,461.167 383.5,459C 411.932,443.132 442.266,433.632 474.5,430.5 Z"/></g>
<g><path style="opacity:1" fill="#efe6dc" d="M 786.5,450.5 C 795.766,450.922 802.6,455.256 807,463.5C 822.454,491.915 813.954,505.581 781.5,504.5C 776.12,504.464 770.786,503.964 765.5,503C 758.024,498.585 755.191,492.085 757,483.5C 761.549,474.956 766.882,466.956 773,459.5C 776.882,455.429 781.382,452.429 786.5,450.5 Z"/></g>
<g><path style="opacity:1" fill="#e8dcd1" d="M 408.5,455.5 C 425.575,453.75 432.408,461.417 429,478.5C 428.372,485.899 426.372,492.899 423,499.5C 419.004,505.233 413.504,507.066 406.5,505C 396.696,500.194 389.196,493.028 384,483.5C 382.676,477.657 383.676,472.324 387,467.5C 393.889,462.81 401.056,458.81 408.5,455.5 Z"/></g>
<g><path style="opacity:1" fill="#efe6dc" d="M 609.5,482.5 C 618.604,481.693 626.937,483.859 634.5,489C 639.014,492.091 643.347,495.425 647.5,499C 654.497,506.135 655.33,513.968 650,522.5C 636.434,531.244 621.601,535.078 605.5,534C 600.6,532.098 597.433,528.598 596,523.5C 593.929,511.094 595.929,499.427 602,488.5C 604.114,485.879 606.614,483.879 609.5,482.5 Z"/></g>
<g><path style="opacity:1" fill="#5e5d23" d="M 709.5,494.5 C 709.5,497.5 709.5,500.5 709.5,503.5C 709.174,506.311 708.341,508.978 707,511.5C 702.854,507.525 700.02,502.858 698.5,497.5C 698.021,493.089 698.688,488.922 700.5,485C 702.809,484.244 704.809,484.744 706.5,486.5C 708.623,488.745 709.623,491.412 709.5,494.5 Z"/></g>
<g><path style="opacity:1" fill="#5e5d23" d="M 721.5,503.5 C 719.193,506.638 716.359,509.305 713,511.5C 712.209,510.255 711.709,508.922 711.5,507.5C 711.5,504.833 711.5,502.167 711.5,499.5C 711.925,495.393 713.425,491.726 716,488.5C 718.218,486.381 720.718,486.048 723.5,487.5C 724.969,493.082 724.302,498.416 721.5,503.5 Z"/></g>
<g><path style="opacity:1" fill="#5e5d23" d="M 697.5,499.5 C 700.575,503.655 701.908,508.321 701.5,513.5C 698.406,512.787 695.406,511.787 692.5,510.5C 689.117,507.28 686.284,503.614 684,499.5C 682.167,493.333 684.333,491.167 690.5,493C 693.331,494.666 695.664,496.832 697.5,499.5 Z"/></g>
<g><path style="opacity:1" fill="#5f5e24" d="M 728.5,512.5 C 724.929,513.642 721.262,514.309 717.5,514.5C 717.818,510.199 719.485,506.532 722.5,503.5C 726.258,497.7 731.424,495.7 738,497.5C 738.743,500.783 738.076,503.783 736,506.5C 733.522,508.639 731.022,510.639 728.5,512.5 Z"/></g>
<g><path style="opacity:1" fill="#898a60" d="M 709.5,494.5 C 710.167,496.167 710.833,497.833 711.5,499.5C 711.5,502.167 711.5,504.833 711.5,507.5C 710.833,506.167 710.167,504.833 709.5,503.5C 709.5,500.5 709.5,497.5 709.5,494.5 Z"/></g>
<g><path style="opacity:1" fill="#acb093" d="M 698.5,497.5 C 700.02,502.858 702.854,507.525 707,511.5C 708.341,508.978 709.174,506.311 709.5,503.5C 710.167,504.833 710.833,506.167 711.5,507.5C 711.709,508.922 712.209,510.255 713,511.5C 716.359,509.305 719.193,506.638 721.5,503.5C 721.833,503.5 722.167,503.5 722.5,503.5C 719.485,506.532 717.818,510.199 717.5,514.5C 721.262,514.309 724.929,513.642 728.5,512.5C 728.833,512.5 729.167,512.5 729.5,512.5C 725.699,514.249 722.365,516.749 719.5,520C 725.238,522.295 731.238,523.128 737.5,522.5C 734.833,523.167 732.167,523.833 729.5,524.5C 726.167,524.5 722.833,524.5 719.5,524.5C 719.351,525.552 719.517,526.552 720,527.5C 722.04,529.37 723.873,531.37 725.5,533.5C 722.404,532.453 719.404,531.12 716.5,529.5C 716.167,530.333 715.833,531.167 715.5,532C 716.806,535.417 717.806,538.917 718.5,542.5C 716.751,538.699 714.251,535.365 711,532.5C 709.076,535.189 707.909,538.189 707.5,541.5C 707.167,541.5 706.833,541.5 706.5,541.5C 706.816,538.022 706.316,534.688 705,531.5C 702.297,534.371 699.464,537.038 696.5,539.5C 698.614,536.161 699.947,532.495 700.5,528.5C 697.027,528.576 693.694,529.242 690.5,530.5C 693.28,528.592 695.947,526.425 698.5,524C 695.575,522.683 692.575,521.517 689.5,520.5C 689.5,520.167 689.5,519.833 689.5,519.5C 692.187,519.664 694.854,519.497 697.5,519C 697.957,518.586 698.291,518.086 698.5,517.5C 696.477,515.147 694.477,512.814 692.5,510.5C 695.406,511.787 698.406,512.787 701.5,513.5C 701.908,508.321 700.575,503.655 697.5,499.5C 698.338,499.158 698.672,498.492 698.5,497.5 Z"/></g>
<g><path style="opacity:1" fill="#5f5e24" d="M 692.5,510.5 C 694.477,512.814 696.477,515.147 698.5,517.5C 698.291,518.086 697.957,518.586 697.5,519C 694.854,519.497 692.187,519.664 689.5,519.5C 683.017,519.955 677.85,517.622 674,512.5C 673.333,510.833 673.333,509.167 674,507.5C 680.62,505.712 686.787,506.712 692.5,510.5 Z"/></g>
<g><path style="opacity:1" fill="#5e5d22" d="M 737.5,522.5 C 731.238,523.128 725.238,522.295 719.5,520C 722.365,516.749 725.699,514.249 729.5,512.5C 733.78,511.46 738.113,511.294 742.5,512C 747.325,514.135 747.659,516.801 743.5,520C 741.512,520.938 739.512,521.772 737.5,522.5 Z"/></g>
<g><path style="opacity:1" fill="#5f5e24" d="M 689.5,520.5 C 692.575,521.517 695.575,522.683 698.5,524C 695.947,526.425 693.28,528.592 690.5,530.5C 685.629,532.208 680.629,532.708 675.5,532C 671.205,530.155 670.538,527.488 673.5,524C 678.392,520.941 683.725,519.775 689.5,520.5 Z"/></g>
<g><path style="opacity:1" fill="#5e5d23" d="M 729.5,524.5 C 734.227,524.909 738.56,526.409 742.5,529C 746.073,534.553 744.573,537.387 738,537.5C 733.43,537.254 729.264,535.921 725.5,533.5C 723.873,531.37 722.04,529.37 720,527.5C 719.517,526.552 719.351,525.552 719.5,524.5C 722.833,524.5 726.167,524.5 729.5,524.5 Z"/></g>
<g><path style="opacity:1" fill="#eee5db" d="M 410.5,525.5 C 432.68,538.918 456.347,549.085 481.5,556C 474.854,599.33 455.188,635.663 422.5,665C 419.681,667.491 416.514,669.324 413,670.5C 404.053,669.553 399.053,664.553 398,655.5C 387.621,610.712 391.787,567.378 410.5,525.5 Z"/></g>
<g><path style="opacity:1" fill="#5f5e24" d="M 696.5,539.5 C 693.61,542.553 690.276,545.053 686.5,547C 679.42,548.044 677.587,545.211 681,538.5C 683.775,535.22 686.942,532.554 690.5,530.5C 693.694,529.242 697.027,528.576 700.5,528.5C 699.947,532.495 698.614,536.161 696.5,539.5 Z"/></g>
<g><path style="opacity:1" fill="#5f5e24" d="M 725.5,533.5 C 728.852,536.695 731.685,540.362 734,544.5C 735.833,550.667 733.667,552.833 727.5,551C 723.973,548.638 720.973,545.804 718.5,542.5C 717.806,538.917 716.806,535.417 715.5,532C 715.833,531.167 716.167,530.333 716.5,529.5C 719.404,531.12 722.404,532.453 725.5,533.5 Z"/></g>
<g><path style="opacity:1" fill="#5e5d23" d="M 706.5,541.5 C 706.266,545.769 705.099,549.769 703,553.5C 697.396,559.521 694.23,558.521 693.5,550.5C 693.63,546.581 694.63,542.914 696.5,539.5C 699.464,537.038 702.297,534.371 705,531.5C 706.316,534.688 706.816,538.022 706.5,541.5 Z"/></g>
<g><path style="opacity:1" fill="#605f25" d="M 718.5,542.5 C 719.463,546.796 719.629,551.129 719,555.5C 717.924,559.106 715.757,560.106 712.5,558.5C 708.22,553.656 706.554,547.989 707.5,541.5C 707.909,538.189 709.076,535.189 711,532.5C 714.251,535.365 716.751,538.699 718.5,542.5 Z"/></g>
<g><path style="opacity:1" fill="#f5efe8" d="M 747.5,544.5 C 799.692,548.386 845.026,567.886 883.5,603C 911.342,628.504 932.508,658.671 947,693.5C 953.198,709.292 957.032,725.626 958.5,742.5C 957.726,751.85 953.06,758.684 944.5,763C 918.218,763.18 893.218,757.514 869.5,746C 806.599,715.097 763.432,666.597 740,600.5C 737.375,590.958 735.375,581.292 734,571.5C 733.333,567.167 733.333,562.833 734,558.5C 738.031,553.304 742.531,548.637 747.5,544.5 Z"/></g>
<g><path style="opacity:1" fill="#eee5db" d="M 198.5,549.5 C 232.102,549.568 263.435,558.068 292.5,575C 324.234,592.734 349.401,617.234 368,648.5C 371.881,655.595 375.215,662.929 378,670.5C 378.618,677.1 376.118,682.267 370.5,686C 337.638,686.605 306.971,678.605 278.5,662C 241.068,640.902 212.902,611.069 194,572.5C 192.292,568.837 191.126,565.004 190.5,561C 192.227,556.452 194.894,552.619 198.5,549.5 Z"/></g>
<g><path style="opacity:1" fill="#e2d2c5" d="M 202.5,552.5 C 211,551.934 219.333,552.767 227.5,555C 231.13,558.05 232.297,561.883 231,566.5C 227.317,575.507 221.484,582.673 213.5,588C 211.167,588.667 208.833,588.667 206.5,588C 197.218,579.502 194.052,569.336 197,557.5C 198.73,555.598 200.563,553.931 202.5,552.5 Z"/></g>
<g><path style="opacity:1" fill="#efe6dc" d="M 754.5,556.5 C 770.295,556.529 784.628,561.029 797.5,570C 803.512,576.746 804.012,583.913 799,591.5C 793.46,598.707 786.96,604.874 779.5,610C 769.202,614.607 761.035,612.107 755,602.5C 749.694,592.248 746.194,581.414 744.5,570C 745.38,563.628 748.713,559.128 754.5,556.5 Z"/></g>
<g><path style="opacity:1" fill="#f5efe8" d="M 675.5,557.5 C 684.656,556.993 692.49,559.993 699,566.5C 702.859,576.46 705.193,586.793 706,597.5C 709.152,676.004 682.319,742.17 625.5,796C 609.615,809.78 591.949,820.78 572.5,829C 566.008,828.768 560.008,826.768 554.5,823C 552.106,821.048 550.606,818.548 550,815.5C 539.19,767.309 543.857,720.642 564,675.5C 587.04,622.632 624.206,583.299 675.5,557.5 Z"/></g>
<g><path style="opacity:1" fill="#efe6dc" d="M 672.5,570.5 C 684.368,568.89 691.201,573.89 693,585.5C 693.667,593.833 693.667,602.167 693,610.5C 690.58,627.965 681.08,633.465 664.5,627C 655.932,623.646 648.765,618.479 643,611.5C 641.543,607.259 641.209,602.926 642,598.5C 643.584,594.325 645.918,590.659 649,587.5C 656.459,581.2 664.292,575.533 672.5,570.5 Z"/></g>
<g><path style="opacity:1" fill="#6d704a" d="M 919.5,636.5 C 939.482,623.007 960.815,611.84 983.5,603C 974.19,604.77 965.19,607.77 956.5,612C 942.826,618.228 929.826,625.395 917.5,633.5C 908.623,622.281 898.956,611.615 888.5,601.5C 907.469,591.342 927.469,583.842 948.5,579C 988.533,570.928 1028.87,569.262 1069.5,574C 1024.37,607.461 984.872,646.627 951,691.5C 943.03,671.541 932.53,653.208 919.5,636.5 Z"/></g>
<g><path style="opacity:1" fill="#6e714b" d="M 718.5,577.5 C 719.75,577.577 720.583,578.244 721,579.5C 742.24,663.723 748.24,749.056 739,835.5C 728.224,944.953 704.89,1051.62 669,1155.5C 665.702,1165.42 661.869,1175.09 657.5,1184.5C 657.167,1184 656.833,1183.5 656.5,1183C 678.454,1114.68 695.454,1045.18 707.5,974.5C 678.973,933.821 647.806,895.154 614,858.5C 603.656,848.988 593.489,839.322 583.5,829.5C 586.137,827.173 589.137,826.007 592.5,826C 626.851,856.978 657.351,891.145 684,928.5C 692.43,942.357 700.097,956.69 707,971.5C 717.778,912.752 723.778,853.419 725,793.5C 727.289,721.348 725.122,649.348 718.5,577.5 Z"/></g>
<g><path style="opacity:1" fill="#c6cab9" d="M 1016.5,591.5 C 1021.23,592.35 1025.9,593.516 1030.5,595C 1027.69,597.901 1024.69,600.568 1021.5,603C 1016.56,603.264 1011.89,602.264 1007.5,600C 1010.57,597.151 1013.57,594.317 1016.5,591.5 Z"/></g>
<g><path style="opacity:1" fill="#5e5e25" d="M 919.5,636.5 C 918.833,635.5 918.167,634.5 917.5,633.5C 929.826,625.395 942.826,618.228 956.5,612C 965.19,607.77 974.19,604.77 983.5,603C 960.815,611.84 939.482,623.007 919.5,636.5 Z"/></g>
<g><path style="opacity:1" fill="#e8dcd1" d="M 409.5,613.5 C 420.377,613.18 429.877,616.513 438,623.5C 440.762,629.745 440.095,635.745 436,641.5C 431.458,647.71 425.958,652.876 419.5,657C 409.525,658.761 404.025,654.594 403,644.5C 400.504,636.556 400.171,628.556 402,620.5C 403.767,617.228 406.267,614.895 409.5,613.5 Z"/></g>
<g><path style="opacity:1" fill="#e8dcd1" d="M 344.5,637.5 C 350.249,637.961 354.749,640.628 358,645.5C 360.921,650.341 363.588,655.341 366,660.5C 369.959,671.596 366.125,677.596 354.5,678.5C 344.866,678.808 335.866,676.641 327.5,672C 322.472,665.721 322.305,659.221 327,652.5C 330.92,645.066 336.754,640.066 344.5,637.5 Z"/></g>
<g><path style="opacity:1" fill="#eee5db" d="M 520.5,653.5 C 536.876,653.094 553.21,653.594 569.5,655C 556.215,679.688 547.215,705.855 542.5,733.5C 506.734,735.513 473.068,728.013 441.5,711C 437.912,708.623 434.412,706.123 431,703.5C 427.813,696.074 429.313,689.907 435.5,685C 461.37,667.727 489.703,657.227 520.5,653.5 Z"/></g>
<g><path style="opacity:1" fill="#e8dcd1" d="M 468.5,675.5 C 476.277,674.342 481.444,677.342 484,684.5C 488.757,715.079 477.59,722.912 450.5,708C 448.333,706.5 446.167,705 444,703.5C 440.525,697.77 441.025,692.437 445.5,687.5C 452.546,682.145 460.212,678.145 468.5,675.5 Z"/></g>
<g><path style="opacity:1" fill="#616027" d="M 408.5,683.5 C 406.882,685.785 404.882,687.785 402.5,689.5C 401.194,688.088 400.36,686.421 400,684.5C 398.803,690.725 396.803,691.058 394,685.5C 394.135,687.425 394.302,689.425 394.5,691.5C 392.323,691.414 390.323,690.747 388.5,689.5C 388.167,689.667 387.833,689.833 387.5,690C 388.729,691.529 390.229,692.696 392,693.5C 392.667,694.167 392.667,694.833 392,695.5C 388.943,696.451 385.777,696.784 382.5,696.5C 378.659,695.928 375.993,693.928 374.5,690.5C 374.608,689.558 374.941,688.725 375.5,688C 378.877,687.631 382.21,687.631 385.5,688C 382.347,685.195 380.681,681.695 380.5,677.5C 384.803,676.796 388.303,678.13 391,681.5C 391.212,678.242 391.712,675.076 392.5,672C 393.833,671.333 395.167,671.333 396.5,672C 398.213,673.925 399.547,676.092 400.5,678.5C 401.768,675.272 403.935,672.938 407,671.5C 407.772,671.645 408.439,671.978 409,672.5C 409.678,676.221 409.511,679.888 408.5,683.5 Z"/></g>
<g><path style="opacity:1" fill="#aaad8f" d="M 408.5,683.5 C 407.039,686.394 406.206,689.394 406,692.5C 413.81,689.538 414.31,690.371 407.5,695C 408.5,695.833 409.5,696.667 410.5,697.5C 409.5,698.333 408.5,699.167 407.5,700C 409.396,702.068 411.396,703.901 413.5,705.5C 410.95,704.642 408.45,703.642 406,702.5C 406.045,706.471 407.212,710.138 409.5,713.5C 409.167,713.5 408.833,713.5 408.5,713.5C 401.955,700.992 399.289,701.992 400.5,716.5C 399.833,716.5 399.167,716.5 398.5,716.5C 400.137,712.278 399.803,708.278 397.5,704.5C 396.01,706.126 394.51,707.792 393,709.5C 392.833,709.167 392.667,708.833 392.5,708.5C 393.747,706.677 394.414,704.677 394.5,702.5C 392.488,703.014 390.488,703.18 388.5,703C 390.303,702.363 391.636,701.197 392.5,699.5C 389.398,697.817 386.064,697.151 382.5,697.5C 382.5,697.167 382.5,696.833 382.5,696.5C 385.777,696.784 388.943,696.451 392,695.5C 392.667,694.833 392.667,694.167 392,693.5C 390.229,692.696 388.729,691.529 387.5,690C 387.833,689.833 388.167,689.667 388.5,689.5C 390.323,690.747 392.323,691.414 394.5,691.5C 394.302,689.425 394.135,687.425 394,685.5C 396.803,691.058 398.803,690.725 400,684.5C 400.36,686.421 401.194,688.088 402.5,689.5C 404.882,687.785 406.882,685.785 408.5,683.5 Z"/></g>
<g><path style="opacity:1" fill="#626128" d="M 413.5,705.5 C 411.396,703.901 409.396,702.068 407.5,700C 408.5,699.167 409.5,698.333 410.5,697.5C 409.5,696.667 408.5,695.833 407.5,695C 414.31,690.371 413.81,689.538 406,692.5C 406.206,689.394 407.039,686.394 408.5,683.5C 410.296,682.207 411.963,680.707 413.5,679C 418.936,676.049 421.103,677.549 420,683.5C 418.167,685.333 416.333,687.167 414.5,689C 417.76,688.518 421.093,688.518 424.5,689C 427.341,692.159 426.674,694.492 422.5,696C 420.5,696.667 418.5,697.333 416.5,698C 419.512,698.78 422.345,699.947 425,701.5C 426.109,705.486 424.609,707.486 420.5,707.5C 418.068,707.114 415.734,706.447 413.5,705.5 Z"/></g>
<g><path style="opacity:1" fill="#6d704a" d="M 814.5,716.5 C 802.839,727.328 791.672,738.661 781,750.5C 778.37,754.132 775.37,757.465 772,760.5C 771.333,761.167 771.333,761.833 772,762.5C 786.309,747.859 800.975,733.525 816,719.5C 816.464,718.906 816.631,718.239 816.5,717.5C 833.47,731.613 852.137,743.113 872.5,752C 834.164,770.565 793.83,777.065 751.5,771.5C 760.085,743.212 772.585,716.879 789,692.5C 797.097,701.095 805.597,709.095 814.5,716.5 Z"/></g>
<g><path style="opacity:1" fill="#5e5d22" d="M 413.5,705.5 C 414.793,707.296 416.293,708.963 418,710.5C 420.812,715.231 419.645,717.398 414.5,717C 412.677,716.003 411.01,714.836 409.5,713.5C 407.212,710.138 406.045,706.471 406,702.5C 408.45,703.642 410.95,704.642 413.5,705.5 Z"/></g>
<g><path style="opacity:1" fill="#616027" d="M 382.5,697.5 C 386.064,697.151 389.398,697.817 392.5,699.5C 391.636,701.197 390.303,702.363 388.5,703C 390.488,703.18 392.488,703.014 394.5,702.5C 394.414,704.677 393.747,706.677 392.5,708.5C 392.667,708.833 392.833,709.167 393,709.5C 394.51,707.792 396.01,706.126 397.5,704.5C 399.803,708.278 400.137,712.278 398.5,716.5C 397.725,721.145 395.225,723.145 391,722.5C 390.498,718.759 390.498,715.092 391,711.5C 388.248,715.722 384.582,717.056 380,715.5C 379.955,711.75 381.455,708.584 384.5,706C 381.572,706.456 378.572,706.456 375.5,706C 372.808,703.368 373.141,701.034 376.5,699C 378.345,697.872 380.345,697.372 382.5,697.5 Z"/></g>
<g><path style="opacity:1" fill="#5f5e24" d="M 408.5,713.5 C 408.784,716.777 408.451,719.943 407.5,723C 406.167,723.667 404.833,723.667 403.5,723C 402.086,721.007 401.086,718.84 400.5,716.5C 399.289,701.992 401.955,700.992 408.5,713.5 Z"/></g>
<g><path style="opacity:1" fill="#e8dcd1" d="M 929.5,706.5 C 935.103,705.918 939.603,707.918 943,712.5C 948.012,721.897 950.345,731.897 950,742.5C 946.056,752.222 938.889,756.388 928.5,755C 921.226,753.88 914.226,751.88 907.5,749C 901.827,745.318 899.993,740.151 902,733.5C 908.409,721.59 917.575,712.59 929.5,706.5 Z"/></g>
<g><path style="opacity:1" fill="#eee5db" d="M 353.5,710.5 C 359.842,710.334 366.175,710.5 372.5,711C 375.04,713.205 377.207,715.705 379,718.5C 379.667,720.833 379.667,723.167 379,725.5C 368.028,757.15 349.862,783.983 324.5,806C 295.17,831.662 261.17,847.662 222.5,854C 216.5,854.667 210.5,854.667 204.5,854C 198.888,849.824 197.055,844.324 199,837.5C 205.498,818.83 214.831,801.83 227,786.5C 260.045,745.949 302.212,720.616 353.5,710.5 Z"/></g>
<g><path style="opacity:1" fill="#5f5e27" d="M 814.5,716.5 C 815.167,716.833 815.833,717.167 816.5,717.5C 816.631,718.239 816.464,718.906 816,719.5C 800.975,733.525 786.309,747.859 772,762.5C 771.333,761.833 771.333,761.167 772,760.5C 775.37,757.465 778.37,754.132 781,750.5C 791.672,738.661 802.839,727.328 814.5,716.5 Z"/></g>
<g><path style="opacity:1" fill="#e8dcd1" d="M 349.5,718.5 C 367.398,716.644 372.898,723.977 366,740.5C 363.839,745.492 361.172,750.159 358,754.5C 353.772,759.087 348.606,760.587 342.5,759C 335.083,754.254 329.917,747.754 327,739.5C 325.079,729.855 328.912,723.688 338.5,721C 342.312,720.205 345.979,719.371 349.5,718.5 Z"/></g>
<g><path style="opacity:1" fill="#6f724c" d="M 428.5,715.5 C 428.56,714.957 428.893,714.624 429.5,714.5C 469.435,731.785 506.101,754.119 539.5,781.5C 540.276,784.986 540.942,788.486 541.5,792C 541.167,792.5 540.833,793 540.5,793.5C 503.977,766.306 466.644,740.306 428.5,715.5 Z"/></g>
<g><path style="opacity:1" fill="#eee5db" d="M 412.5,723.5 C 414.199,723.34 415.866,723.506 417.5,724C 449.586,747.303 472.086,777.803 485,815.5C 497.925,850.1 500.591,885.433 493,921.5C 489.903,933.466 482.736,936.966 471.5,932C 442.127,908.611 421.293,879.111 409,843.5C 395.335,807.16 393.001,770.16 402,732.5C 403.875,727.448 407.375,724.448 412.5,723.5 Z"/></g>
<g><path style="opacity:1" fill="#db9824" d="M 961.5,727.5 C 1005.15,746.655 1031.65,779.655 1041,826.5C 1045.56,887.581 1021.73,933.748 969.5,965C 927.664,986.56 884.664,989.227 840.5,973C 799.389,955.397 773.722,924.897 763.5,881.5C 793.467,884.241 823.133,882.407 852.5,876C 864.28,872.444 875.613,867.778 886.5,862C 899.437,854.06 912.104,845.726 924.5,837C 943.423,826.539 963.423,818.872 984.5,814C 967.882,806.807 950.549,802.141 932.5,800C 897.15,795.648 862.484,798.648 828.5,809C 803.172,818.406 780.672,832.239 761,850.5C 761.163,823.344 769.33,798.844 785.5,777C 802.032,775.972 818.366,773.638 834.5,770C 849.354,765.823 863.854,760.656 878,754.5C 899.011,763.102 920.845,767.602 943.5,768C 961.528,760.142 967.528,746.642 961.5,727.5 Z"/></g>
<g><path style="opacity:1" fill="#e8dcd1" d="M 413.5,736.5 C 417.308,736.163 420.974,736.663 424.5,738C 432.09,743.588 438.256,750.421 443,758.5C 444.874,765.011 443.041,770.178 437.5,774C 429.372,778.533 420.706,780.199 411.5,779C 407.835,777.332 405.668,774.499 405,770.5C 403.501,759.758 404.835,749.425 409,739.5C 410.652,738.601 412.152,737.601 413.5,736.5 Z"/></g>
<g><path style="opacity:1" fill="#fdc573" d="M 973.5,755.5 C 978.599,757.548 983.599,759.882 988.5,762.5C 989.607,767.474 990.607,772.474 991.5,777.5C 991.167,778.167 990.833,778.833 990.5,779.5C 985.426,777.214 980.592,774.547 976,771.5C 974.624,766.245 973.791,760.912 973.5,755.5 Z"/></g>
<g><path style="opacity:1" fill="#e8dcd1" d="M 563.5,770.5 C 575.345,771.587 586.012,775.754 595.5,783C 602.929,788.51 604.429,795.343 600,803.5C 591.462,812.853 580.962,818.02 568.5,819C 558.236,814.659 553.403,806.826 554,795.5C 552.609,787.995 553.776,780.995 557.5,774.5C 559.29,772.684 561.29,771.351 563.5,770.5 Z"/></g>
<g><path style="opacity:1" fill="#6d704a" d="M 882.5,801.5 C 913.602,799.686 943.935,803.519 973.5,813C 953.439,818.862 934.439,827.196 916.5,838C 880.188,867.493 838.521,881.326 791.5,879.5C 775.756,879.327 760.09,878.161 744.5,876C 743.692,875.692 743.025,875.192 742.5,874.5C 778.954,830.606 825.621,806.273 882.5,801.5 Z"/></g>
<g><path style="opacity:1" fill="#e2d2c5" d="M 213.5,815.5 C 217.131,815.16 220.464,815.994 223.5,818C 231.018,824.039 236.018,831.706 238.5,841C 238.5,844.333 237.167,847 234.5,849C 226.793,852.171 218.793,853.171 210.5,852C 202.381,846.833 200.214,839.666 204,830.5C 205.666,824.49 208.833,819.49 213.5,815.5 Z"/></g>
<g><path style="opacity:1" fill="#6d704a" d="M 500.5,876.5 C 511.872,868.143 524.205,861.309 537.5,856C 543.833,855.333 550.167,855.333 556.5,856C 567.33,858.044 577.997,860.377 588.5,863C 567.609,853.46 545.609,848.96 522.5,849.5C 514.158,849.722 505.825,850.056 497.5,850.5C 496.249,842 494.249,833.667 491.5,825.5C 537.903,822.412 578.57,836.079 613.5,866.5C 578.558,891.378 539.891,907.711 497.5,915.5C 499.979,902.629 500.979,889.629 500.5,876.5 Z"/></g>
<g><path style="opacity:1" fill="#5e5d23" d="M 500.5,876.5 C 500.5,874.833 500.5,873.167 500.5,871.5C 508.562,864.634 517.562,859.134 527.5,855C 517.814,854.342 508.148,854.508 498.5,855.5C 497.699,853.958 497.366,852.292 497.5,850.5C 505.825,850.056 514.158,849.722 522.5,849.5C 545.609,848.96 567.609,853.46 588.5,863C 577.997,860.377 567.33,858.044 556.5,856C 550.167,855.333 543.833,855.333 537.5,856C 524.205,861.309 511.872,868.143 500.5,876.5 Z"/></g>
<g><path style="opacity:1" fill="#6c6f49" d="M 500.5,871.5 C 499.927,866.153 499.26,860.82 498.5,855.5C 508.148,854.508 517.814,854.342 527.5,855C 517.562,859.134 508.562,864.634 500.5,871.5 Z"/></g>
<g><path style="opacity:1" fill="#6d704b" d="M 409.5,857.5 C 416.52,871.191 424.353,884.525 433,897.5C 438.125,904.293 443.625,910.793 449.5,917C 420.707,916.303 394.04,908.47 369.5,893.5C 381.958,880.367 395.291,868.367 409.5,857.5 Z"/></g>
<g><path style="opacity:1" fill="#e2d2c5" d="M 476.5,895.5 C 486.794,892.505 492.461,896.171 493.5,906.5C 492.631,912.643 491.131,918.643 489,924.5C 484.611,930.288 479.111,931.788 472.5,929C 448.587,914.439 449.92,903.272 476.5,895.5 Z"/></g>
<g><path style="opacity:1" fill="#6d704a" d="M 566.5,947.5 C 600.648,945.601 629.981,956.435 654.5,980C 670.831,996.483 683.831,1015.32 693.5,1036.5C 637.212,1037.78 594.045,1014.78 564,967.5C 560.639,962.112 557.806,956.446 555.5,950.5C 559.213,949.222 562.88,948.222 566.5,947.5 Z"/></g>
</svg>
